<svg width="67" height="66" viewBox="0 0 67 66" fill="none" xmlns="http://www.w3.org/2000/svg">
<rect x="5.5" y="5" width="56" height="56" rx="28" fill="#B7E5FF"/>
<path d="M37.5846 27.75L41.668 23.6667M44.0013 21.3334L41.668 23.6667L44.0013 21.3334ZM32.7896 32.545C33.392 33.1394 33.8709 33.8471 34.1987 34.6273C34.5265 35.4075 34.6967 36.2448 34.6995 37.0911C34.7023 37.9374 34.5377 38.7758 34.2152 39.5582C33.8927 40.3406 33.4185 41.0515 32.8201 41.6499C32.2217 42.2483 31.5109 42.7224 30.7285 43.0449C29.9461 43.3675 29.1076 43.5321 28.2614 43.5292C27.4151 43.5264 26.5778 43.3562 25.7976 43.0284C25.0173 42.7006 24.3097 42.2218 23.7153 41.6194C22.5464 40.4092 21.8997 38.7883 21.9143 37.1059C21.9289 35.4235 22.6038 33.8141 23.7935 32.6244C24.9832 31.4347 26.5925 30.7598 28.275 30.7452C29.9574 30.7306 31.5783 31.3774 32.7885 32.5462L32.7896 32.545ZM32.7896 32.545L37.5846 27.75L32.7896 32.545ZM37.5846 27.75L41.0846 31.25L45.168 27.1667L41.668 23.6667L37.5846 27.75Z" stroke="#0082CA" stroke-width="2.33333" stroke-linecap="round" stroke-linejoin="round"/>
<rect x="5.5" y="5" width="56" height="56" rx="28" stroke="#EDF9FF" stroke-width="10"/>
</svg>
