<svg width="41" height="40" viewBox="0 0 41 40" fill="none" xmlns="http://www.w3.org/2000/svg">
<path d="M26.7514 38.75C26.7451 38.75 26.7389 38.75 26.7326 38.75H3.0001C2.5501 38.75 2.13385 38.5075 1.9126 38.1163C1.6901 37.725 1.69635 37.2438 1.92885 36.8575L13.1789 18.1075C13.3989 17.74 13.7926 17.5113 14.2201 17.5013C14.6714 17.4813 15.0526 17.7 15.2901 18.0575L27.4189 36.25H35.5451L28.0451 25.9363L26.5401 28.1938C26.1576 28.7675 25.3801 28.9238 24.8064 28.54C24.2326 28.1575 24.0776 27.3813 24.4601 26.8063L26.9601 23.0563C27.1876 22.7163 27.5651 22.5088 27.9751 22.5C28.3639 22.5 28.7714 22.6838 29.0114 23.015L39.0114 36.765C39.2876 37.145 39.3276 37.6488 39.1151 38.0675C38.9001 38.4863 38.4701 38.75 38.0001 38.75H26.7701C26.7639 38.75 26.7576 38.75 26.7514 38.75ZM5.2076 36.25H24.4139L14.3051 21.0875L5.2076 36.25Z" fill="#EAA602"/>
<path d="M14.25 20C13.56 20 13 19.44 13 18.75V2.5C13 1.81 13.56 1.25 14.25 1.25C14.94 1.25 15.5 1.81 15.5 2.5V18.75C15.5 19.44 14.94 20 14.25 20Z" fill="#EAA602"/>
<path d="M26.75 12.5H14.25C13.56 12.5 13 11.94 13 11.25V3.75C13 3.06 13.56 2.5 14.25 2.5H26.75C27.2113 2.5 27.635 2.75375 27.8525 3.16C28.07 3.56625 28.0463 4.06 27.79 4.4425L25.7525 7.5L27.79 10.5562C28.0463 10.94 28.07 11.4325 27.8525 11.8387C27.635 12.2462 27.2113 12.5 26.75 12.5ZM15.5 10H24.4138L23.21 8.19375C22.93 7.77375 22.93 7.2275 23.21 6.8075L24.4138 5H15.5V10Z" fill="#EAA602"/>
</svg>
