<svg width="504" height="135" viewBox="0 0 504 135" fill="none" xmlns="http://www.w3.org/2000/svg">
<g clip-path="url(#clip0_19_89)">
<path d="M127.37 36.63H145.24V102.35H127.37V36.63ZM188.1 44.25C190.428 47.271 192.045 50.7779 192.83 54.51C193.883 59.5196 194.369 64.6317 194.28 69.75V102.35H176.4V69.67C176.4 67.21 176.333 64.86 176.2 62.62C176.116 60.5742 175.648 58.5625 174.82 56.69C174.018 54.9781 172.681 53.574 171.01 52.69C168.67 51.5989 166.098 51.1009 163.52 51.24C160.553 51.2265 157.624 51.9117 154.97 53.24V53.37L154.84 53.24L148.4 41.83L148.53 41.7C153.09 37.62 158.787 35.58 165.62 35.58C176.14 35.58 183.633 38.47 188.1 44.25Z" fill="#231F20"/>
<path d="M217.81 93.42L194.81 36.63H213.61V36.76L230.61 84.48L217.81 93.42ZM268.15 36.63L268.02 36.89C266.527 40.89 265.08 44.8133 263.68 48.66C262.28 52.5067 260.967 56.0767 259.74 59.37C255.36 71.6433 251.447 82.1867 248 91C245.173 98.5864 241.442 105.805 236.89 112.5C232.937 118.187 228.49 122.303 223.55 124.85C218.61 127.397 212.407 128.67 204.94 128.67H204.68V110.77H204.94C207.22 110.77 209.26 110.683 211.06 110.51C212.746 110.356 214.403 109.98 215.99 109.39C217.484 108.818 218.88 108.018 220.13 107.02C221.526 105.874 222.743 104.526 223.74 103.02C225.032 101.188 226.176 99.2548 227.16 97.24C228.3 94.96 229.483 92.2433 230.71 89.09C231.94 85.93 233.29 82.28 234.79 78.09C236.29 73.9 237.94 69.22 239.79 63.96C241.19 60.02 242.68 55.8133 244.26 51.34C245.84 46.8667 247.55 42.0033 249.39 36.75V36.62L268.15 36.63Z" fill="#231F20"/>
<path d="M273.41 10.34H290.89V25.72H273.41V10.34ZM273.41 102.34V36.63H290.89V102.35L273.41 102.34Z" fill="#231F20"/>
<path d="M298.78 36.63H316.66V102.35H298.78V36.63ZM359.51 44.25C361.842 47.2687 363.459 50.7766 364.24 54.51C365.298 59.519 365.784 64.6316 365.69 69.75V102.35H347.81V69.67C347.81 67.21 347.75 64.86 347.61 62.62C347.526 60.5743 347.058 58.5626 346.23 56.69C345.431 54.9761 344.093 53.5711 342.42 52.69C340.081 51.5978 337.508 51.0998 334.93 51.24C331.966 51.2256 329.04 51.9108 326.39 53.24V53.37L326.25 53.24L319.81 41.88L319.94 41.75C324.5 37.67 330.197 35.63 337.03 35.63C347.55 35.5967 355.043 38.47 359.51 44.25Z" fill="#231F20"/>
<path d="M389.22 93.42L366.22 36.63H385V36.76L402 84.48L389.22 93.42ZM439.57 36.63L439.44 36.89C437.94 40.89 436.493 44.8133 435.1 48.66C433.707 52.5067 432.373 56.0767 431.1 59.37C426.753 71.6433 422.85 82.1867 419.39 91C416.567 98.5882 412.836 105.807 408.28 112.5C404.34 118.187 399.893 122.303 394.94 124.85C389.987 127.397 383.787 128.67 376.34 128.67H376.08V110.77H376.34C378.62 110.77 380.65 110.68 382.45 110.51C384.136 110.358 385.794 109.981 387.38 109.39C388.874 108.818 390.27 108.018 391.52 107.02C392.92 105.875 394.14 104.527 395.14 103.02C396.425 101.185 397.565 99.2523 398.55 97.24C399.69 94.96 400.873 92.2433 402.1 89.09C403.33 85.93 404.69 82.28 406.18 78.09C407.67 73.9 409.33 69.22 411.18 63.96C412.58 60.02 414.08 55.81 415.65 51.34C417.22 46.87 418.94 42.01 420.78 36.75V36.62L439.57 36.63Z" fill="#231F20"/>
<path d="M470.06 35.5801C474.582 35.5558 479.06 36.4718 483.21 38.2701C491.333 41.7503 497.804 48.2249 501.28 56.3501C503.101 60.5357 504.027 65.0556 504 69.6201C504.01 72.0951 503.745 74.5635 503.21 76.9801L503.08 77.2501H469.67L461.26 63.8401H486.26C485.128 60.2968 483.008 57.1502 480.15 54.7701C477.334 52.4134 473.762 51.1528 470.09 51.2201C467.779 51.2105 465.493 51.7018 463.39 52.6601C461.315 53.5838 459.445 54.9109 457.888 56.5642C456.331 58.2174 455.118 60.1638 454.32 62.2901C453.423 64.6077 452.975 67.0749 453 69.5601C453.024 71.6876 453.427 73.7939 454.19 75.7801C454.972 77.9103 456.127 79.8844 457.6 81.6101C459.124 83.384 460.952 84.8707 463 86.0001C465.173 87.1967 467.62 87.8067 470.1 87.7701C472.31 87.7866 474.507 87.449 476.61 86.7701C478.869 85.887 480.815 84.3519 482.2 82.3601L482.33 82.2301L482.59 82.3601L497.84 89.0801L497.58 89.3401C494.482 93.7123 490.362 97.2618 485.58 99.6801C480.803 102.14 475.504 103.416 470.13 103.4C465.552 103.429 461.015 102.534 456.79 100.77C452.738 99.0942 449.054 96.6375 445.95 93.5401C442.856 90.4413 440.379 86.7832 438.65 82.7601C436.875 78.5822 435.96 74.0894 435.96 69.5501C435.96 65.0107 436.875 60.5179 438.65 56.3401C442.134 48.1961 448.635 41.7167 456.79 38.2601C460.984 36.4702 465.5 35.5582 470.06 35.5801Z" fill="#231F20"/>
<path d="M53.37 133.41L7.14004 106.72C4.96874 105.466 3.16577 103.663 1.91241 101.492C0.659047 99.3203 -0.000515839 96.8572 3.8454e-05 94.35V41C-0.00579101 38.4877 0.65127 36.0183 1.90489 33.8412C3.15852 31.664 4.96433 29.8561 7.14004 28.6L53.37 1.90998C55.5409 0.656652 58.0034 -0.00317383 60.51 -0.00317383C63.0167 -0.00317383 65.4792 0.656652 67.65 1.90998L113.88 28.6C116.052 29.8587 117.854 31.6677 119.104 33.8446C120.354 36.0216 121.008 38.4897 121 41V94.35C121.001 96.8572 120.341 99.3203 119.088 101.492C117.834 103.663 116.031 105.466 113.86 106.72L67.65 133.41C65.4792 134.663 63.0167 135.323 60.51 135.323C58.0034 135.323 55.5409 134.663 53.37 133.41ZM29 94.11L53.39 108.19C55.5609 109.443 58.0234 110.103 60.53 110.103C63.0367 110.103 65.4992 109.443 67.67 108.19L92 94.11C94.172 92.8572 95.9755 91.0542 97.229 88.8825C98.4825 86.7109 99.1416 84.2474 99.14 81.74V53.58C99.1406 51.0728 98.481 48.6096 97.2277 46.4382C95.9743 44.2668 94.1713 42.4636 92 41.21L67.65 27.13C65.4792 25.8766 63.0167 25.2168 60.51 25.2168C58.0034 25.2168 55.5409 25.8766 53.37 27.13L29 41.21C26.8287 42.4636 25.0258 44.2668 23.7724 46.4382C22.519 48.6096 21.8595 51.0728 21.86 53.58V81.74C21.8585 84.2474 22.5176 86.7109 23.7711 88.8825C25.0245 91.0542 26.8281 92.8572 29 94.11Z" fill="#FDB913"/>
<path d="M71.7101 72V63.36C71.7092 62.7035 71.5361 62.0588 71.2079 61.4902C70.8798 60.9216 70.4081 60.4491 69.8401 60.12L62.3801 55.81C61.8102 55.4856 61.1658 55.3151 60.5101 55.3151C59.8543 55.3151 59.2099 55.4856 58.6401 55.81L51.1901 60.12C50.6195 60.4471 50.1453 60.9188 49.8152 61.4877C49.4851 62.0565 49.3109 62.7024 49.3101 63.36V72C49.3119 72.6575 49.4866 73.3029 49.8165 73.8716C50.1465 74.4403 50.6202 74.9122 51.1901 75.24L58.6401 79.54C59.2083 79.8693 59.8533 80.0426 60.5101 80.0426C61.1668 80.0426 61.8118 79.8693 62.3801 79.54L69.8401 75.24C70.4067 74.9094 70.8773 74.4366 71.2053 73.8683C71.5332 73.3001 71.7072 72.6561 71.7101 72Z" fill="#FDB913"/>
</g>
<defs>
<clipPath id="clip0_19_89">
<rect width="503.98" height="134.72" fill="white"/>
</clipPath>
</defs>
</svg>
