<svg width="650" height="513" viewBox="0 0 650 513" fill="none" xmlns="http://www.w3.org/2000/svg">
<path d="M609.414 427.308C607.098 425.291 604.057 424.538 601.118 423.929C580.616 419.687 559.576 419.673 538.691 419.677L64.8082 419.728L71.4621 422.5C62.9779 423.63 54.179 424.879 46.9725 429.778C39.7643 434.675 34.655 444.349 37.4038 452.97C38.6867 456.996 41.4868 460.293 44.6222 462.924C65.3778 480.344 95.7037 469.971 121.69 475.094C137.837 478.278 152.271 487.571 167.717 493.511C190.169 502.145 215.025 503.549 238.209 497.49C251.724 493.959 264.599 487.984 278.15 484.614C295.31 480.346 313.118 480.351 330.739 480.377C360.293 480.421 389.846 480.464 419.4 480.508C435.592 480.532 451.816 480.558 467.918 482.374C495.057 485.436 521.948 493.578 549.168 491.492C576.387 489.405 605.406 473.507 612.546 445.457C614.144 439.172 614.149 431.433 609.414 427.308Z" fill="#D1DEF2"/>
<path d="M587.268 445.236L86.7868 446.695C86.7868 446.695 -5.28057 348.645 60.9732 263.424C127.227 178.202 118.077 259.381 197.868 160.324C325.686 1.64497 396.734 263.827 462.793 242.632C636.685 186.838 660.094 413.579 587.268 445.236Z" fill="#E6EBF4"/>
<path d="M67.6016 408.449H69.206L68.9529 419.253H67.6016V408.449Z" fill="#5CA88D"/>
<path d="M82.6457 402.891C83.2495 402.367 99.7356 387.36 97.7941 368.527C95.8527 349.695 80.121 345.035 84.5872 323.096C89.0534 301.157 84.5872 286.013 70.9919 285.818C57.3967 285.625 51.1823 298.826 56.2318 322.318C61.2813 345.81 39.6482 354.999 40.6951 372.216C41.9027 392.06 57.5934 424.638 82.6457 402.891Z" fill="#7AC094"/>
<path opacity="0.2" d="M61.5796 288.754C61.8157 289.799 62.4297 290.832 63.4372 291.281C64.3661 291.697 65.4351 291.611 66.4101 291.44C68.2164 291.124 70.045 290.445 71.9026 290.688C72.8366 290.809 73.7261 291.222 74.5642 291.635C75.4862 292.092 76.3586 292.641 77.1745 293.267C78.7362 294.467 80.0875 295.963 81.0197 297.704C82.082 299.686 82.4515 301.873 82.5147 304.101C82.5866 306.673 82.3488 309.25 82.8141 311.798C83.1237 313.493 83.6471 315.351 84.8342 316.654C85.0634 316.904 85.3166 317.106 85.5834 317.282C88.1646 298.523 83.3512 285.991 70.9943 285.815C67.2637 285.762 64.0992 286.733 61.5625 288.634C61.5693 288.677 61.5711 288.713 61.5796 288.754Z" fill="#F2FAFF"/>
<path opacity="0.15" d="M71.5724 364.42C69.684 360.943 69.6583 356.624 70.6983 352.889C71.2543 350.889 72.1078 348.973 73.0845 347.145C73.4797 346.407 73.9672 345.709 74.3264 344.951C74.5864 344.406 74.5351 343.927 74.3229 343.371C73.9586 342.409 73.442 341.492 73.0332 340.545C72.6227 339.591 72.2276 338.628 71.8923 337.645C71.191 335.598 70.9087 333.527 70.7445 331.379C70.5837 329.259 70.6607 327.065 71.3364 325.033C71.9402 323.219 73.2487 321.754 73.909 319.979C72.8297 319.319 71.8889 318.467 71.1123 317.463C70.216 316.307 69.5198 315.02 68.9724 313.657C68.9673 316.661 68.9673 319.666 68.9587 322.672C68.928 334.647 68.8783 346.622 68.8493 358.597C68.8236 369.268 68.8253 379.94 68.827 390.61C69.0494 389.842 69.2854 389.08 69.554 388.326C71.9573 381.561 75.9651 375.555 79.8479 369.569C76.3636 369.702 73.2282 367.469 71.5724 364.42Z" fill="#202234"/>
<path opacity="0.15" d="M73.5748 408.673C71.6676 408.693 69.7415 408.374 68.0293 407.503C66.223 406.585 64.8049 405.07 63.806 403.322C63.1902 402.245 62.8242 401.178 62.6155 399.959C62.3914 398.647 62.1553 397.411 61.2932 396.354C59.7914 394.512 57.2273 394.256 55.1713 393.326C53.2435 392.453 51.7673 390.796 50.623 389.054C49.4752 387.305 48.6661 385.338 48.1085 383.327C46.9299 379.068 46.8034 374.517 47.3473 370.15C47.8519 366.109 48.9176 362.104 50.9223 358.539C53.3119 354.288 56.4542 350.495 58.6915 346.157C59.788 344.03 60.6056 341.762 60.9614 339.389C61.3856 336.56 61.1205 333.712 60.4756 330.94C59.764 327.88 58.6316 324.943 57.4668 322.032C56.3806 319.32 55.4518 316.581 54.8326 313.725C55.1165 316.415 55.5784 319.279 56.2318 322.32C61.2813 345.812 39.6482 355.001 40.6951 372.217C41.7488 389.55 53.8507 416.59 73.5902 408.675C73.5851 408.673 73.5799 408.673 73.5748 408.673Z" fill="#202234"/>
<path d="M86.1943 364.358C86.1753 364.339 86.1528 364.324 86.128 364.314C86.1032 364.303 86.0766 364.298 86.0497 364.298C86.0229 364.298 85.9962 364.303 85.9714 364.314C85.9466 364.324 85.9241 364.339 85.9052 364.358L68.6819 381.576V352.299L78.2797 342.166C78.3584 342.084 78.3532 341.956 78.2728 341.877C78.2533 341.858 78.2304 341.844 78.2053 341.834C78.1801 341.825 78.1534 341.82 78.1265 341.821C78.0996 341.822 78.0732 341.828 78.0487 341.839C78.0242 341.85 78.0021 341.866 77.9837 341.885L68.6819 351.706V325.363L75.6557 318.287C75.7344 318.207 75.7344 318.077 75.654 317.998C75.6349 317.98 75.6122 317.965 75.5872 317.955C75.5623 317.945 75.5356 317.94 75.5088 317.94C75.4819 317.94 75.4553 317.946 75.4306 317.957C75.406 317.967 75.3836 317.983 75.3649 318.002L68.6836 324.782V302.128C68.6836 302.015 68.593 301.924 68.4801 301.924C68.3672 301.924 68.2748 302.015 68.2748 302.128V333.72L62.9705 329.202C62.8849 329.131 62.7549 329.139 62.6831 329.226C62.6095 329.312 62.6198 329.442 62.7053 329.514L68.2748 334.257V364.009L57.7653 353.503C57.7464 353.484 57.7239 353.469 57.6991 353.459C57.6743 353.448 57.6477 353.443 57.6208 353.443C57.5939 353.443 57.5673 353.448 57.5425 353.459C57.5177 353.469 57.4952 353.484 57.4762 353.503C57.4572 353.522 57.442 353.545 57.4317 353.569C57.4213 353.594 57.416 353.621 57.416 353.648C57.416 353.675 57.4213 353.701 57.4317 353.726C57.442 353.751 57.4572 353.773 57.4762 353.792L68.2748 364.586V409.495C68.2748 409.608 68.3655 409.699 68.4801 409.699C68.593 409.699 68.6836 409.608 68.6836 409.495V382.153L86.196 364.646C86.2747 364.567 86.2747 364.437 86.1943 364.358Z" fill="#B8DEBF"/>
<path d="M126.254 395.757H129.759L129.205 419.36H126.254V395.757Z" fill="#5CA88D"/>
<path d="M159.123 383.615C160.443 382.467 196.462 349.68 192.22 308.534C187.976 267.388 153.606 257.208 163.367 209.275C173.125 161.342 163.367 128.255 133.665 127.831C103.962 127.407 90.3853 156.251 101.416 207.577C112.449 258.903 65.1858 278.978 67.471 316.593C70.1053 359.95 104.386 431.122 159.123 383.615Z" fill="#7AC094"/>
<path opacity="0.2" d="M113.094 134.244C113.607 136.526 114.952 138.784 117.151 139.767C119.182 140.675 121.515 140.49 123.648 140.116C127.596 139.423 131.59 137.942 135.649 138.474C137.691 138.741 139.633 139.639 141.465 140.545C143.48 141.54 145.385 142.741 147.166 144.11C150.577 146.73 153.531 150.001 155.57 153.804C157.891 158.134 158.697 162.91 158.833 167.78C158.993 173.399 158.471 179.028 159.487 184.596C160.163 188.3 161.307 192.36 163.902 195.208C164.401 195.756 164.957 196.195 165.539 196.582C171.178 155.596 160.664 128.218 133.663 127.831C125.512 127.715 118.6 129.837 113.055 133.992C113.072 134.078 113.075 134.158 113.094 134.244Z" fill="#F2FAFF"/>
<path opacity="0.15" d="M134.925 299.56C130.798 291.964 130.745 282.53 133.013 274.368C134.229 269.995 136.092 265.814 138.228 261.82C139.09 260.207 140.158 258.68 140.943 257.028C141.509 255.837 141.396 254.792 140.938 253.578C140.142 251.474 139.012 249.47 138.122 247.401C137.224 245.315 136.364 243.213 135.628 241.066C134.097 236.594 133.48 232.069 133.121 227.375C132.768 222.743 132.938 217.951 134.416 213.509C135.736 209.545 138.593 206.344 140.035 202.466C137.676 201.024 135.622 199.162 133.926 196.971C131.968 194.444 130.447 191.631 129.25 188.657C129.238 195.222 129.238 201.787 129.221 208.352C129.152 234.515 129.046 260.678 128.981 286.842C128.923 310.156 128.93 333.471 128.93 356.785C129.414 355.109 129.932 353.442 130.517 351.795C135.769 337.015 144.525 323.896 153.011 310.816C145.395 311.102 138.545 306.222 134.925 299.56Z" fill="#202234"/>
<path opacity="0.15" d="M139.301 396.245C135.134 396.291 130.926 395.591 127.187 393.69C123.239 391.682 120.141 388.372 117.957 384.557C116.611 382.204 115.814 379.873 115.357 377.207C114.866 374.343 114.353 371.641 112.47 369.333C109.189 365.307 103.585 364.748 99.095 362.717C94.8854 360.81 91.6576 357.192 89.1603 353.383C86.6544 349.563 84.884 345.266 83.6678 340.873C81.0917 331.569 80.8146 321.624 82.0052 312.082C83.1067 303.251 85.4348 294.503 89.8154 286.712C95.0359 277.427 101.9 269.137 106.787 259.662C109.184 255.014 110.969 250.06 111.748 244.875C112.675 238.697 112.097 232.473 110.687 226.416C109.132 219.73 106.659 213.314 104.114 206.953C101.743 201.026 99.7125 195.041 98.3578 188.803C98.9804 194.678 99.9879 200.935 101.414 207.579C112.447 258.904 65.1838 278.98 67.4691 316.594C69.7698 354.462 96.2128 413.539 139.337 396.245C139.325 396.243 139.313 396.245 139.301 396.245Z" fill="#202234"/>
<path d="M166.873 299.424C166.832 299.383 166.783 299.35 166.728 299.328C166.674 299.305 166.616 299.294 166.558 299.294C166.499 299.294 166.441 299.305 166.387 299.328C166.333 299.35 166.283 299.383 166.242 299.424L128.614 337.041V273.078L149.583 250.937C149.752 250.76 149.746 250.476 149.566 250.306C149.388 250.135 149.104 250.146 148.935 250.323L128.614 271.779V214.229L143.848 198.77C144.02 198.596 144.019 198.312 143.843 198.139C143.801 198.098 143.752 198.065 143.697 198.043C143.643 198.021 143.585 198.01 143.526 198.01C143.467 198.011 143.409 198.023 143.355 198.046C143.301 198.069 143.252 198.103 143.211 198.145L128.612 212.958V163.462C128.612 163.216 128.412 163.016 128.166 163.016C127.918 163.016 127.719 163.216 127.719 163.462V232.486L116.132 222.615C115.944 222.456 115.663 222.478 115.503 222.666C115.344 222.854 115.364 223.134 115.552 223.295L127.719 233.66V298.663L104.759 275.71C104.717 275.669 104.668 275.636 104.614 275.613C104.56 275.591 104.502 275.579 104.443 275.579C104.385 275.579 104.327 275.591 104.272 275.613C104.218 275.636 104.169 275.669 104.128 275.71C104.045 275.794 103.998 275.908 103.998 276.026C103.998 276.144 104.045 276.257 104.128 276.341L127.719 299.925V398.045C127.719 398.291 127.918 398.492 128.166 398.492C128.412 398.492 128.612 398.291 128.612 398.045V338.306L166.873 300.057C166.956 299.973 167.003 299.859 167.003 299.741C167.003 299.622 166.956 299.509 166.873 299.424Z" fill="#B8DEBF"/>
<path d="M562.293 396.263H564.664L564.289 412.225H562.293V396.263Z" fill="#5CA88D"/>
<path d="M584.519 388.054C585.412 387.279 609.768 365.107 606.898 337.284C604.029 309.462 580.788 302.578 587.387 270.166C593.987 237.755 587.387 215.381 567.304 215.094C547.219 214.807 538.039 234.311 545.498 269.019C552.958 303.725 520.998 317.301 522.545 342.734C524.325 372.053 547.506 420.178 584.519 388.054Z" fill="#7AC094"/>
<path opacity="0.2" d="M553.395 219.431C553.742 220.975 554.65 222.5 556.14 223.165C557.512 223.779 559.089 223.654 560.533 223.401C563.203 222.933 565.902 221.931 568.647 222.291C570.028 222.473 571.341 223.08 572.58 223.692C573.941 224.366 575.231 225.176 576.435 226.103C578.741 227.875 580.739 230.087 582.118 232.657C583.688 235.585 584.232 238.815 584.324 242.109C584.432 245.908 584.08 249.715 584.766 253.48C585.222 255.985 585.995 258.73 587.75 260.655C588.087 261.025 588.464 261.322 588.857 261.584C592.672 233.87 585.561 215.356 567.303 215.096C561.792 215.017 557.117 216.452 553.367 219.261C553.379 219.318 553.383 219.372 553.395 219.431Z" fill="#F2FAFF"/>
<path opacity="0.15" d="M568.157 331.217C565.368 326.08 565.33 319.7 566.864 314.182C567.687 311.225 568.946 308.399 570.39 305.697C570.973 304.606 571.695 303.575 572.225 302.456C572.608 301.649 572.531 300.943 572.222 300.122C571.685 298.699 570.92 297.345 570.318 295.945C569.712 294.534 569.129 293.113 568.631 291.659C567.596 288.636 567.177 285.577 566.936 282.403C566.698 279.27 566.813 276.03 567.812 273.027C568.705 270.348 570.636 268.183 571.611 265.56C570.015 264.585 568.628 263.325 567.48 261.846C566.156 260.136 565.128 258.234 564.317 256.223C564.31 260.662 564.309 265.101 564.298 269.541C564.252 287.232 564.18 304.924 564.136 322.615C564.097 338.38 564.102 354.144 564.102 369.911C564.428 368.777 564.779 367.65 565.176 366.537C568.727 356.544 574.647 347.672 580.386 338.828C575.237 339.021 570.603 335.721 568.157 331.217Z" fill="#202234"/>
<path opacity="0.15" d="M571.115 396.593C568.298 396.624 565.451 396.152 562.923 394.865C560.255 393.507 558.159 391.269 556.683 388.69C555.773 387.1 555.234 385.523 554.925 383.719C554.593 381.781 554.246 379.955 552.973 378.394C550.754 375.672 546.966 375.294 543.929 373.919C541.083 372.63 538.9 370.183 537.21 367.607C535.515 365.023 534.318 362.118 533.497 359.148C531.756 352.857 531.567 346.131 532.373 339.68C533.119 333.708 534.693 327.793 537.653 322.525C541.184 316.246 545.825 310.64 549.129 304.233C550.751 301.09 551.957 297.74 552.484 294.235C553.112 290.057 552.72 285.849 551.767 281.753C550.715 277.232 549.042 272.894 547.321 268.593C545.719 264.587 544.345 260.537 543.428 256.32C543.849 260.293 544.53 264.525 545.496 269.017C552.956 303.723 520.996 317.299 522.543 342.732C524.099 368.337 541.978 408.285 571.139 396.592C571.132 396.593 571.123 396.593 571.115 396.593Z" fill="#202234"/>
<path d="M589.761 331.124C589.643 331.006 589.451 331.006 589.333 331.124L563.889 356.561V313.31L578.067 298.339C578.182 298.219 578.177 298.027 578.055 297.913C577.934 297.798 577.744 297.803 577.629 297.925L563.889 312.432V273.516L574.19 263.063C574.306 262.945 574.306 262.753 574.186 262.637C574.066 262.519 573.877 262.521 573.76 262.641L563.889 272.658V239.188C563.889 239.02 563.754 238.887 563.588 238.887C563.422 238.887 563.287 239.022 563.287 239.188V285.861L555.451 279.187C555.324 279.079 555.134 279.092 555.025 279.221C554.917 279.347 554.933 279.537 555.059 279.647L563.287 286.654V330.61L547.76 315.09C547.642 314.972 547.451 314.972 547.333 315.09C547.215 315.208 547.215 315.399 547.333 315.515L563.285 331.463V397.811C563.285 397.977 563.42 398.112 563.586 398.112C563.752 398.112 563.887 397.977 563.887 397.811V357.416L589.759 331.552C589.877 331.434 589.877 331.242 589.761 331.124Z" fill="#B8DEBF"/>
<path d="M60.9515 428.052C60.9515 428.052 65.7649 393.122 56.1809 396.57C46.5968 400.017 50.9945 414.017 60.9515 428.052Z" fill="#394CA4"/>
<path d="M61.5845 427.715C61.5845 427.715 41.9853 393.261 28.4653 405.108C14.9436 416.954 61.5845 427.715 61.5845 427.715Z" fill="#100959"/>
<path opacity="0.5" d="M29.2165 405.492C29.6082 406.568 30.2514 407.481 31.4128 407.761C32.8634 408.112 34.4439 407.686 35.903 407.604C37.5656 407.51 39.1615 407.758 40.6685 408.481C42.1259 409.181 43.3728 410.239 44.6027 411.267C45.8377 412.298 47.0949 413.422 48.5386 414.15C49.9088 414.843 51.5338 415.138 53.039 415.374H53.0442C46.2773 407.064 36.7086 398.637 28.9805 404.683C29.042 404.957 29.119 405.227 29.2165 405.492Z" fill="#F2FAFF"/>
<path d="M34.0049 446.696H203.202L200.774 438.242L195.066 418.215C191.023 404.078 176.974 395.231 162.462 397.702L155.137 398.972C154.583 399.064 154.051 399.111 153.519 399.111C150.285 399.111 147.211 397.493 145.386 394.745C132.815 375.896 104.393 378.228 95.0587 398.88L93.81 401.652C91.6086 406.542 85.8629 408.728 80.9657 406.537L73.66 403.268C69.3854 401.351 64.625 402.782 61.9908 406.156C61.0192 407.38 60.3265 408.858 60.0493 410.521L58.9632 416.85C58.6861 418.422 58.084 419.807 57.2287 420.963C57.0662 421.171 56.9054 421.378 56.7429 421.563C55.2633 423.273 53.2534 424.405 51.0588 424.798C50.5046 424.913 49.9042 424.959 49.3261 424.959C47.4924 424.959 45.6347 424.456 43.9482 423.331C40.1439 420.792 35.0449 421.426 31.8103 424.658L26.9011 429.564C20.5841 435.886 25.0622 446.696 34.0049 446.696Z" fill="#4094F2"/>
<path opacity="0.2" d="M27.3837 433.196C28.3741 431.722 28.971 430.007 30.0367 428.584C32.2399 425.643 36.2733 425.051 39.7046 425.628C42.0121 426.014 44.1896 426.842 46.5655 426.63C48.4197 426.464 50.2637 426.173 52.0631 425.699C55.5988 424.769 59.1806 423.039 61.1649 419.829C63.1388 416.638 62.198 412.411 64.5312 409.381C67.0405 406.123 71.363 406.429 74.8457 407.703C76.7974 408.416 78.5284 409.615 80.487 410.287C82.7842 411.077 85.2525 411.176 87.6164 410.636C88.8395 410.356 90.0249 409.923 91.1504 409.369C91.8483 409.025 92.4846 408.652 92.9772 408.039C93.7863 407.03 94.0908 405.694 94.0446 404.422C94.0155 403.647 93.8445 402.874 93.5486 402.163C91.1863 406.688 85.6853 408.649 80.9659 406.537L73.6603 403.268C69.3857 401.351 64.6253 402.782 61.991 406.156C61.0195 407.38 60.3267 408.859 60.0496 410.521L58.9634 416.85C58.6863 418.42 58.0842 419.807 57.2289 420.963C57.0664 421.171 56.9057 421.378 56.7432 421.563C55.2635 423.273 53.2537 424.405 51.0591 424.798C50.5049 424.913 49.9045 424.959 49.3263 424.959C47.4926 424.959 45.635 424.456 43.9484 423.331C40.1442 420.792 35.0451 421.426 31.8105 424.658L26.9013 429.564C25.1172 431.348 24.1935 433.488 23.9883 435.643C25.4029 435.334 26.5489 434.439 27.3837 433.196Z" fill="#F2FAFF"/>
<path opacity="0.25" d="M48.9375 446.696H203.201L200.774 438.242C193.149 431.404 182.612 428.056 171.89 429.903L166.182 430.872L163.108 431.38C162.439 431.496 161.769 431.541 161.121 431.541C159.687 431.541 158.278 431.288 156.961 430.778C154.742 429.923 152.801 428.422 151.415 426.342C149.474 423.41 147.187 420.913 144.691 418.858C143.742 418.043 142.738 417.295 141.687 416.618C136.072 412.898 129.625 411.05 123.156 410.981C119.367 410.911 115.6 411.467 111.994 412.644C103.236 415.415 95.4724 421.722 91.1516 431.308L89.6497 434.588C86.9916 440.479 80.0845 443.088 74.2139 440.455L69.7768 438.468L65.5022 436.551C63.5608 435.674 61.527 435.397 59.5872 435.581C54.5497 436.065 50.1126 439.809 49.1889 445.236L48.9375 446.696Z" fill="#F2FAFF"/>
<path d="M69.8574 415.52C69.8574 417.18 71.2036 418.526 72.8645 418.526C74.5255 418.526 75.8716 417.18 75.8716 415.52C75.8716 413.859 74.5255 412.512 72.8645 412.512C71.2036 412.514 69.8574 413.859 69.8574 415.52Z" fill="#100959"/>
<path opacity="0.15" d="M70.5547 416.231C70.5547 417.892 71.9009 419.237 73.5618 419.237C75.2227 419.237 76.5689 417.892 76.5689 416.231C76.5689 414.571 75.2227 413.223 73.5618 413.223C71.9009 413.225 70.5547 414.571 70.5547 416.231Z" fill="#202234"/>
<path d="M113.471 438.485C113.471 440.145 114.817 441.491 116.478 441.491C118.139 441.491 119.485 440.145 119.485 438.485C119.485 436.825 118.139 435.479 116.478 435.479C114.817 435.477 113.471 436.825 113.471 438.485Z" fill="#394CA4"/>
<path opacity="0.15" d="M101.93 400.266C101.93 403.466 104.525 406.062 107.725 406.062C110.925 406.062 113.522 403.468 113.522 400.266C113.522 397.065 110.927 394.471 107.725 394.471C104.525 394.471 101.93 397.065 101.93 400.266Z" fill="#202234"/>
<path d="M102.658 398.206C102.658 401.405 105.253 404 108.453 404C111.656 404 114.25 401.405 114.25 398.206C114.25 395.005 111.656 392.411 108.453 392.411C105.253 392.413 102.658 395.007 102.658 398.206Z" fill="#394CA4"/>
<path d="M69.9666 445.113C69.9666 445.113 83.5293 428.016 77.3389 426.838C71.1468 425.66 69.0822 434.503 69.9666 445.113Z" fill="#100959"/>
<path opacity="0.5" d="M70.4015 434.603C71.0344 434.453 71.4296 434.012 71.6998 433.441C72.2438 432.293 72.2044 430.951 72.8305 429.838C73.1452 429.278 73.6361 428.849 74.216 428.581C74.7907 428.317 75.4305 428.184 75.9761 427.861C76.5047 427.548 76.6005 427.168 76.1934 426.734C72.9536 426.778 71.0413 429.926 70.2305 434.634C70.2886 434.624 70.3468 434.617 70.4015 434.603Z" fill="#F2FAFF"/>
<path d="M69.9679 445.113C69.9679 445.113 61.4169 422.122 51.9817 428.016C42.5464 433.912 69.9679 445.113 69.9679 445.113Z" fill="#394CA4"/>
<path opacity="0.2" d="M52.3652 427.813C52.4627 428.033 52.6834 428.235 52.8544 428.304C53.2308 428.458 53.7165 428.398 54.1151 428.389C54.9909 428.372 55.894 428.311 56.7579 428.485C57.6884 428.671 58.5779 429.21 59.3442 429.752C60.7519 430.746 61.6619 432.295 63.1073 433.222C63.3417 433.372 63.6735 433.538 64.0498 433.68C60.8768 429.107 56.7288 425.439 52.3652 427.813Z" fill="#F2FAFF"/>
<path d="M69.9668 445.113C69.9668 445.113 101.516 441.281 93.555 436.271C85.5942 431.26 69.9668 445.113 69.9668 445.113Z" fill="#394CA4"/>
<path opacity="0.2" d="M80.5017 438.116C81.4305 437.945 82.113 437.397 82.905 436.927C83.6525 436.483 84.4633 436.122 85.3186 435.941C86.5296 435.686 87.7458 435.995 88.962 435.829C89.3862 435.771 89.8857 435.626 90.0448 435.205C86.894 435.01 83.2505 436.382 79.9355 438.169C80.1237 438.16 80.3119 438.15 80.5017 438.116Z" fill="#F2FAFF"/>
<path d="M335.885 428.052C335.885 428.052 340.698 393.122 331.114 396.57C321.53 400.017 325.929 414.017 335.885 428.052Z" fill="#394CA4"/>
<path d="M336.516 427.715C336.516 427.715 316.917 393.261 303.397 405.108C289.875 416.954 336.516 427.715 336.516 427.715Z" fill="#100959"/>
<path opacity="0.5" d="M304.148 405.492C304.54 406.568 305.183 407.481 306.345 407.761C307.795 408.112 309.376 407.686 310.835 407.604C312.497 407.51 314.093 407.758 315.602 408.481C317.059 409.181 318.306 410.239 319.536 411.267C320.771 412.298 322.029 413.422 323.472 414.15C324.842 414.843 326.467 415.138 327.973 415.374H327.978C321.211 407.064 311.642 398.637 303.914 404.683C303.974 404.957 304.053 405.227 304.148 405.492Z" fill="#F2FAFF"/>
<path d="M308.938 446.696H478.135L475.707 438.242L469.999 418.215C465.956 404.078 451.907 395.231 437.395 397.702L430.071 398.972C429.516 399.064 428.984 399.111 428.452 399.111C425.218 399.111 422.144 397.493 420.319 394.745C407.748 375.896 379.326 378.228 369.992 398.88L368.743 401.652C366.542 406.542 360.796 408.728 355.899 406.537L348.593 403.268C344.318 401.351 339.558 402.782 336.924 406.156C335.952 407.38 335.26 408.858 334.982 410.521L333.896 416.85C333.619 418.422 333.019 419.807 332.163 420.963C332.001 421.171 331.84 421.378 331.678 421.563C330.2 423.273 328.188 424.405 325.994 424.798C325.439 424.913 324.839 424.959 324.261 424.959C322.427 424.959 320.57 424.456 318.883 423.331C315.079 420.792 309.978 421.426 306.745 424.658L301.836 429.564C295.517 435.886 299.995 446.696 308.938 446.696Z" fill="#4094F2"/>
<path opacity="0.2" d="M302.316 433.196C303.306 431.722 303.903 430.007 304.969 428.584C307.172 425.643 311.205 425.051 314.637 425.628C316.944 426.014 319.122 426.842 321.498 426.63C323.352 426.464 325.196 426.173 326.995 425.699C330.531 424.769 334.113 423.039 336.097 419.829C338.071 416.638 337.13 412.411 339.465 409.381C341.974 406.123 346.297 406.429 349.779 407.703C351.731 408.416 353.462 409.615 355.421 410.287C357.718 411.077 360.186 411.176 362.55 410.636C363.773 410.356 364.959 409.923 366.084 409.369C366.78 409.025 367.418 408.652 367.911 408.039C368.72 407.03 369.025 405.694 368.978 404.422C368.949 403.647 368.778 402.874 368.482 402.163C366.12 406.688 360.619 408.649 355.9 406.537L348.594 403.268C344.319 401.351 339.559 402.782 336.925 406.156C335.953 407.38 335.261 408.859 334.983 410.521L333.897 416.85C333.62 418.42 333.02 419.807 332.164 420.963C332.002 421.171 331.841 421.378 331.679 421.563C330.201 423.273 328.189 424.405 325.995 424.798C325.44 424.913 324.84 424.959 324.262 424.959C322.43 424.959 320.572 424.456 318.886 423.331C315.081 420.792 309.981 421.426 306.748 424.658L301.839 429.564C300.054 431.348 299.131 433.488 298.924 435.643C300.337 435.334 301.481 434.439 302.316 433.196Z" fill="#F2FAFF"/>
<path opacity="0.25" d="M323.871 446.696H478.135L475.708 438.242C468.082 431.404 457.545 428.056 446.824 429.903L441.116 430.872L438.042 431.38C437.373 431.496 436.703 431.541 436.054 431.541C434.621 431.541 433.211 431.288 431.894 430.778C429.676 429.923 427.736 428.422 426.349 426.342C424.407 423.41 422.12 420.913 419.625 418.858C418.676 418.043 417.672 417.295 416.621 416.618C411.005 412.898 404.558 411.05 398.089 410.981C394.3 410.911 390.534 411.467 386.928 412.644C378.17 415.415 370.406 421.722 366.085 431.308L364.583 434.588C361.927 440.479 355.018 443.088 349.148 440.455L344.71 438.468L340.436 436.551C338.494 435.674 336.461 435.397 334.521 435.581C329.483 436.065 325.046 439.809 324.123 445.236L323.871 446.696Z" fill="#F2FAFF"/>
<path d="M344.791 415.52C344.791 417.18 346.137 418.526 347.798 418.526C349.459 418.526 350.805 417.18 350.805 415.52C350.805 413.859 349.459 412.512 347.798 412.512C346.137 412.514 344.791 413.859 344.791 415.52Z" fill="#100959"/>
<path opacity="0.15" d="M345.486 416.231C345.486 417.892 346.833 419.237 348.493 419.237C350.154 419.237 351.501 417.892 351.501 416.231C351.501 414.571 350.154 413.223 348.493 413.223C346.834 413.225 345.486 414.571 345.486 416.231Z" fill="#202234"/>
<path d="M391.413 441.491C393.074 441.491 394.42 440.145 394.42 438.485C394.42 436.825 393.074 435.479 391.413 435.479C389.753 435.479 388.406 436.825 388.406 438.485C388.406 440.145 389.753 441.491 391.413 441.491Z" fill="#394CA4"/>
<path opacity="0.15" d="M376.865 400.266C376.865 403.466 379.46 406.062 382.661 406.062C385.863 406.062 388.457 403.468 388.457 400.266C388.457 397.065 385.863 394.471 382.661 394.471C379.46 394.471 376.865 397.065 376.865 400.266Z" fill="#202234"/>
<path d="M377.592 398.206C377.592 401.405 380.187 404 383.387 404C386.589 404 389.184 401.405 389.184 398.206C389.184 395.005 386.589 392.411 383.387 392.411C380.187 392.413 377.592 395.007 377.592 398.206Z" fill="#394CA4"/>
<path d="M344.9 445.113C344.9 445.113 358.463 428.016 352.271 426.838C346.08 425.66 344.016 434.503 344.9 445.113Z" fill="#100959"/>
<path opacity="0.5" d="M345.337 434.603C345.97 434.453 346.364 434.012 346.636 433.441C347.18 432.293 347.14 430.951 347.766 429.838C348.081 429.278 348.572 428.849 349.153 428.581C349.728 428.317 350.368 428.184 350.914 427.861C351.442 427.548 351.538 427.168 351.131 426.734C347.891 426.778 345.979 429.926 345.168 434.634C345.223 434.624 345.281 434.617 345.337 434.603Z" fill="#F2FAFF"/>
<path d="M344.9 445.113C344.9 445.113 336.349 422.122 326.913 428.016C317.478 433.912 344.9 445.113 344.9 445.113Z" fill="#394CA4"/>
<path opacity="0.2" d="M327.299 427.813C327.396 428.033 327.617 428.235 327.788 428.304C328.164 428.458 328.65 428.398 329.049 428.389C329.925 428.372 330.828 428.311 331.691 428.485C332.622 428.671 333.511 429.21 334.278 429.752C335.686 430.746 336.596 432.295 338.041 433.222C338.275 433.372 338.607 433.538 338.983 433.68C335.81 429.107 331.662 425.439 327.299 427.813Z" fill="#F2FAFF"/>
<path d="M344.9 445.113C344.9 445.113 376.449 441.281 368.489 436.271C360.528 431.26 344.9 445.113 344.9 445.113Z" fill="#394CA4"/>
<path opacity="0.2" d="M355.435 438.116C356.364 437.945 357.048 437.397 357.839 436.927C358.586 436.483 359.397 436.122 360.252 435.941C361.463 435.686 362.679 435.995 363.896 435.829C364.32 435.771 364.819 435.626 364.978 435.205C361.828 435.01 358.184 436.382 354.869 438.169C355.059 438.16 355.247 438.15 355.435 438.116Z" fill="#F2FAFF"/>
<path d="M569.545 418.225C569.545 418.225 562.195 364.885 576.83 370.148C591.465 375.415 584.748 396.792 569.545 418.225Z" fill="#394CA4"/>
<path d="M568.578 417.71C568.578 417.71 598.507 365.095 619.153 383.187C639.801 401.279 568.578 417.71 568.578 417.71Z" fill="#100959"/>
<path opacity="0.5" d="M618.005 383.775C617.407 385.419 616.427 386.812 614.653 387.242C612.438 387.778 610.024 387.127 607.797 387C605.257 386.857 602.821 387.235 600.519 388.341C598.295 389.41 596.39 391.024 594.51 392.596C592.625 394.17 590.704 395.886 588.499 396.999C586.407 398.056 583.925 398.507 581.626 398.868H581.619C591.952 386.176 606.564 373.31 618.366 382.542C618.274 382.958 618.154 383.37 618.005 383.775Z" fill="#F2FAFF"/>
<path d="M610.693 446.696H352.316L356.021 433.784L364.738 403.201C370.913 381.612 392.367 368.101 414.527 371.875L425.712 373.815C426.558 373.956 427.371 374.027 428.182 374.027C433.122 374.027 437.815 371.557 440.604 367.359C459.799 338.575 503.202 342.137 517.457 373.674L519.363 377.907C522.724 385.376 531.499 388.714 538.978 385.367L550.132 380.376C556.661 377.448 563.929 379.635 567.952 384.786C569.435 386.655 570.494 388.912 570.917 391.453L572.576 401.118C573 403.517 573.917 405.634 575.222 407.397C575.47 407.715 575.716 408.032 575.963 408.314C578.204 410.907 581.269 412.65 584.644 413.252C585.49 413.428 586.407 413.499 587.29 413.499C590.088 413.499 592.926 412.731 595.5 411.012C601.309 407.136 609.097 408.102 614.037 413.04L621.533 420.532C631.187 430.188 624.348 446.696 610.693 446.696Z" fill="#4094F2"/>
<path opacity="0.2" d="M620.806 426.082C619.294 423.832 618.38 421.212 616.753 419.039C613.391 414.549 607.231 413.644 601.99 414.523C598.465 415.115 595.141 416.377 591.511 416.053C588.68 415.8 585.865 415.354 583.114 414.632C577.716 413.213 572.246 410.568 569.216 405.668C566.202 400.795 567.639 394.34 564.074 389.714C560.243 384.74 553.642 385.207 548.324 387.151C545.342 388.24 542.7 390.07 539.708 391.098C536.2 392.303 532.43 392.455 528.819 391.629C526.951 391.202 525.141 390.54 523.424 389.694C522.36 389.169 521.387 388.599 520.636 387.662C519.399 386.121 518.935 384.083 519.007 382.141C519.05 380.959 519.312 379.776 519.763 378.692C523.371 385.6 531.771 388.596 538.978 385.372L550.132 380.381C556.659 377.453 563.929 379.641 567.952 384.791C569.435 386.66 570.494 388.919 570.917 391.458L572.576 401.123C573 403.522 573.917 405.639 575.222 407.402C575.47 407.72 575.716 408.037 575.963 408.319C578.204 410.911 581.269 412.655 584.643 413.257C585.49 413.434 586.407 413.504 587.29 413.504C590.088 413.504 592.926 412.736 595.5 411.017C601.309 407.141 609.097 408.107 614.037 413.044L621.533 420.537C624.258 423.261 625.667 426.53 625.982 429.821C623.828 429.343 622.08 427.979 620.806 426.082Z" fill="#F2FAFF"/>
<path opacity="0.25" d="M587.89 446.697H352.316L356.021 433.784C367.667 423.343 383.756 418.228 400.129 421.05L408.844 422.531L413.538 423.307C414.561 423.483 415.584 423.555 416.572 423.555C418.76 423.555 420.912 423.167 422.924 422.391C426.31 421.086 429.275 418.791 431.392 415.617C434.357 411.139 437.85 407.329 441.661 404.188C443.142 402.919 444.659 401.79 446.248 400.766C454.823 395.087 464.667 392.266 474.549 392.159C480.336 392.053 486.086 392.9 491.593 394.699C504.965 398.933 516.821 408.562 523.42 423.201L525.714 428.211C529.772 437.208 540.322 441.194 549.285 437.172L556.061 434.138L562.588 431.211C565.552 429.87 568.659 429.448 571.621 429.73C579.315 430.47 586.089 436.185 587.502 444.475L587.89 446.697Z" fill="#F2FAFF"/>
<path d="M555.945 399.088C555.945 401.624 553.889 403.68 551.353 403.68C548.816 403.68 546.76 401.624 546.76 399.088C546.76 396.552 548.816 394.497 551.353 394.497C553.889 394.497 555.945 396.552 555.945 399.088Z" fill="#100959"/>
<path opacity="0.15" d="M554.881 400.174C554.881 402.71 552.825 404.766 550.288 404.766C547.751 404.766 545.695 402.71 545.695 400.174C545.695 397.638 547.751 395.583 550.288 395.583C552.825 395.583 554.881 397.638 554.881 400.174Z" fill="#202234"/>
<path d="M489.342 434.157C489.342 436.693 487.286 438.748 484.749 438.748C482.212 438.748 480.156 436.693 480.156 434.157C480.156 431.621 482.212 429.566 484.749 429.566C487.286 429.566 489.342 431.621 489.342 434.157Z" fill="#394CA4"/>
<path opacity="0.15" d="M506.966 375.795C506.966 380.682 503.003 384.644 498.116 384.644C493.227 384.644 489.264 380.682 489.264 375.795C489.264 370.908 493.227 366.945 498.116 366.945C503.003 366.945 506.966 370.908 506.966 375.795Z" fill="#202234"/>
<path d="M505.857 372.65C505.857 377.537 501.893 381.498 497.006 381.498C492.119 381.498 488.154 377.536 488.154 372.65C488.154 367.763 492.118 363.801 497.006 363.801C501.895 363.801 505.857 367.763 505.857 372.65Z" fill="#394CA4"/>
<path d="M555.776 444.28C555.776 444.28 535.064 418.174 544.519 416.373C553.975 414.571 557.126 428.076 555.776 444.28Z" fill="#100959"/>
<path opacity="0.5" d="M555.112 428.23C554.147 428.001 553.543 427.326 553.129 426.453C552.298 424.702 552.358 422.65 551.403 420.951C550.923 420.096 550.173 419.441 549.286 419.032C548.41 418.629 547.431 418.427 546.598 417.934C545.793 417.457 545.646 416.877 546.268 416.212C551.215 416.281 554.135 421.087 555.373 428.276C555.286 428.261 555.197 428.251 555.112 428.23Z" fill="#F2FAFF"/>
<path d="M555.777 444.28C555.777 444.28 568.834 409.17 583.243 418.174C597.651 427.175 555.777 444.28 555.777 444.28Z" fill="#394CA4"/>
<path opacity="0.2" d="M582.655 417.859C582.504 418.196 582.167 418.504 581.909 418.61C581.334 418.844 580.592 418.753 579.983 418.741C578.645 418.716 577.267 418.622 575.946 418.887C574.525 419.172 573.166 419.995 571.996 420.821C569.846 422.337 568.457 424.702 566.249 426.118C565.893 426.347 565.384 426.601 564.811 426.818C569.658 419.837 575.992 414.237 582.655 417.859Z" fill="#F2FAFF"/>
<path d="M555.776 444.28C555.776 444.28 507.598 438.429 519.756 430.776C531.911 423.124 555.776 444.28 555.776 444.28Z" fill="#394CA4"/>
<path opacity="0.2" d="M539.689 433.593C538.269 433.333 537.227 432.497 536.018 431.778C534.875 431.098 533.637 430.547 532.332 430.272C530.483 429.884 528.625 430.356 526.769 430.101C526.121 430.012 525.36 429.79 525.115 429.148C529.927 428.851 535.491 430.946 540.553 433.673C540.265 433.661 539.978 433.646 539.689 433.593Z" fill="#F2FAFF"/>
<path opacity="0.25" d="M369.554 349.148C369.554 349.977 370.227 350.649 371.056 350.649C371.886 350.649 372.556 349.977 372.556 349.148C372.556 348.318 371.884 347.646 371.056 347.646C370.227 347.648 369.554 348.318 369.554 349.148ZM360.844 349.148C360.844 349.977 361.517 350.649 362.346 350.649C363.174 350.649 363.848 349.977 363.848 349.148C363.848 348.318 363.176 347.646 362.346 347.646C361.517 347.648 360.844 348.318 360.844 349.148ZM352.136 349.148C352.136 349.977 352.808 350.649 353.638 350.649C354.466 350.649 355.14 349.977 355.14 349.148C355.14 348.318 354.468 347.646 353.638 347.646C352.807 347.648 352.136 348.318 352.136 349.148ZM343.426 349.148C343.426 349.977 344.098 350.649 344.928 350.649C345.758 350.649 346.43 349.977 346.43 349.148C346.43 348.318 345.758 347.646 344.928 347.646C344.098 347.648 343.426 348.318 343.426 349.148ZM334.716 349.148C334.716 349.977 335.388 350.649 336.218 350.649C337.048 350.649 337.72 349.977 337.72 349.148C337.72 348.318 337.048 347.646 336.218 347.646C335.388 347.648 334.716 348.318 334.716 349.148ZM366.816 356.559C366.816 357.388 367.488 358.06 368.316 358.06C369.146 358.06 369.818 357.388 369.818 356.559C369.818 355.73 369.146 355.058 368.316 355.058C367.488 355.058 366.816 355.73 366.816 356.559ZM358.106 356.559C358.106 357.388 358.778 358.06 359.608 358.06C360.437 358.06 361.11 357.388 361.11 356.559C361.11 355.73 360.437 355.058 359.608 355.058C358.778 355.058 358.106 355.73 358.106 356.559ZM349.396 356.559C349.396 357.388 350.068 358.06 350.898 358.06C351.727 358.06 352.4 357.388 352.4 356.559C352.4 355.73 351.727 355.058 350.898 355.058C350.068 355.058 349.396 355.73 349.396 356.559ZM340.686 356.559C340.686 357.388 341.358 358.06 342.188 358.06C343.017 358.06 343.688 357.388 343.688 356.559C343.688 355.73 343.016 355.058 342.188 355.058C341.36 355.058 340.686 355.73 340.686 356.559ZM331.978 356.559C331.978 357.388 332.65 358.06 333.479 358.06C334.309 358.06 334.981 357.388 334.981 356.559C334.981 355.73 334.309 355.058 333.479 355.058C332.65 355.058 331.978 355.73 331.978 356.559ZM323.268 356.559C323.268 357.388 323.94 358.06 324.769 358.06C325.599 358.06 326.271 357.388 326.271 356.559C326.271 355.73 325.599 355.058 324.769 355.058C323.94 355.058 323.268 355.73 323.268 356.559ZM369.554 333.44C369.554 334.269 370.227 334.941 371.056 334.941C371.886 334.941 372.556 334.269 372.556 333.44C372.556 332.61 371.884 331.938 371.056 331.938C370.227 331.938 369.554 332.61 369.554 333.44ZM360.844 333.44C360.844 334.269 361.517 334.941 362.346 334.941C363.174 334.941 363.848 334.269 363.848 333.44C363.848 332.61 363.176 331.938 362.346 331.938C361.517 331.938 360.844 332.61 360.844 333.44ZM352.136 333.44C352.136 334.269 352.808 334.941 353.638 334.941C354.466 334.941 355.14 334.269 355.14 333.44C355.14 332.61 354.468 331.938 353.638 331.938C352.807 331.938 352.136 332.61 352.136 333.44ZM343.426 333.44C343.426 334.269 344.098 334.941 344.928 334.941C345.758 334.941 346.43 334.269 346.43 333.44C346.43 332.61 345.758 331.938 344.928 331.938C344.098 331.938 343.426 332.61 343.426 333.44ZM334.716 333.44C334.716 334.269 335.388 334.941 336.218 334.941C337.048 334.941 337.72 334.269 337.72 333.44C337.72 332.61 337.048 331.938 336.218 331.938C335.388 331.938 334.716 332.61 334.716 333.44ZM366.816 340.851C366.816 341.68 367.488 342.352 368.316 342.352C369.146 342.352 369.818 341.68 369.818 340.851C369.818 340.022 369.146 339.351 368.316 339.351C367.488 339.349 366.816 340.022 366.816 340.851ZM358.106 340.851C358.106 341.68 358.778 342.352 359.608 342.352C360.437 342.352 361.11 341.68 361.11 340.851C361.11 340.022 360.437 339.351 359.608 339.351C358.778 339.349 358.106 340.022 358.106 340.851ZM349.396 340.851C349.396 341.68 350.068 342.352 350.898 342.352C351.727 342.352 352.4 341.68 352.4 340.851C352.4 340.022 351.727 339.351 350.898 339.351C350.068 339.349 349.396 340.022 349.396 340.851ZM340.686 340.851C340.686 341.68 341.358 342.352 342.188 342.352C343.017 342.352 343.688 341.68 343.688 340.851C343.688 340.022 343.016 339.351 342.188 339.351C341.36 339.349 340.686 340.022 340.686 340.851ZM331.978 340.851C331.978 341.68 332.65 342.352 333.479 342.352C334.309 342.352 334.981 341.68 334.981 340.851C334.981 340.022 334.309 339.351 333.479 339.351C332.65 339.349 331.978 340.022 331.978 340.851ZM323.268 340.851C323.268 341.68 323.94 342.352 324.769 342.352C325.599 342.352 326.271 341.68 326.271 340.851C326.271 340.022 325.599 339.351 324.769 339.351C323.94 339.349 323.268 340.022 323.268 340.851Z" fill="#4094F2"/>
<path d="M215.366 462.916C215.366 462.916 215.833 463.275 215.6 463.926C215.366 464.58 184.833 464.527 184.6 463.514C184.366 462.504 185.252 462.085 185.252 462.085C185.252 462.085 213.176 461.473 215.366 462.916Z" fill="#383B4B"/>
<path d="M187.566 444.183L185.664 459.98L193.844 461.561L196.822 445.971L187.566 444.183Z" fill="#D7A28E"/>
<path d="M184.177 453.673C183.334 458.372 183.231 461.873 184.855 462.762C186.461 463.713 215.634 463.466 215.634 463.466C215.634 463.466 218.985 459.379 211.83 458.316C206.301 457.439 199.676 454.304 196.943 452.88L196.955 452.818C196.289 450.961 197.092 449.133 196.197 449.793C195.67 450.204 195.345 451.228 195.13 452.338C193.588 454.024 188.411 454.303 187.071 452.957C187.07 452.953 185.084 448.986 184.177 453.673Z" fill="#202234"/>
<path d="M204.695 459.111C209.469 461.57 211.828 458.314 211.828 458.314C206.299 457.437 199.675 454.302 196.941 452.878L196.953 452.817C195.718 454.561 200.171 456.702 204.695 459.111ZM271.772 462.916C271.772 462.916 272.238 463.275 272.006 463.926C271.772 464.58 241.239 464.527 241.006 463.514C240.772 462.504 241.658 462.085 241.658 462.085C241.658 462.085 269.582 461.473 271.772 462.916Z" fill="#383B4B"/>
<path d="M241.969 444.034L243.628 459.831L251.808 461.413L251.224 445.823L241.969 444.034Z" fill="#D7A28E"/>
<path d="M240.583 453.673C239.74 458.372 239.637 461.873 241.261 462.762C242.867 463.713 272.04 463.466 272.04 463.466C272.04 463.466 275.391 459.379 268.236 458.316C262.707 457.439 256.082 454.304 253.349 452.88L253.361 452.818C252.696 450.961 253.498 449.133 252.603 449.793C252.076 450.204 251.751 451.228 251.536 452.338C249.995 454.024 244.817 454.303 243.478 452.957C243.476 452.953 241.49 448.986 240.583 453.673Z" fill="#202234"/>
<path d="M261.101 459.111C265.877 461.57 268.234 458.314 268.234 458.314C262.706 457.437 256.081 454.302 253.347 452.878L253.359 452.817C252.124 454.561 256.577 456.702 261.101 459.111ZM394.616 465.289C394.616 465.289 394.149 465.648 394.382 466.3C394.616 466.953 425.149 466.9 425.382 465.889C425.616 464.879 424.73 464.46 424.73 464.46C424.73 464.46 396.807 463.846 394.616 465.289Z" fill="#383B4B"/>
<path d="M424.419 446.409L422.76 462.206L414.58 463.786L415.165 448.198L424.419 446.409Z" fill="#FB8A77"/>
<path d="M425.807 456.048C426.65 460.748 426.753 464.248 425.129 465.137C423.523 466.088 394.35 465.84 394.35 465.84C394.35 465.84 390.999 461.753 398.154 460.689C403.683 459.814 410.308 456.678 413.041 455.253L413.029 455.192C413.695 453.335 412.892 451.507 413.787 452.167C414.314 452.577 414.639 453.601 414.854 454.711C416.396 456.397 421.573 456.676 422.913 455.33C422.914 455.329 424.9 451.361 425.807 456.048Z" fill="#202234"/>
<path d="M405.287 461.486C400.511 463.945 398.154 460.689 398.154 460.689C403.683 459.814 410.308 456.678 413.041 455.253L413.029 455.192C414.264 456.936 409.813 459.075 405.287 461.486ZM565.839 348.659C565.839 348.659 566.337 348.973 566.869 348.529C567.401 348.084 556.783 319.466 555.754 319.596C554.724 319.726 554.637 320.702 554.637 320.702C554.637 320.702 563.728 347.104 565.839 348.659Z" fill="#383B4B"/>
<path d="M537.805 327.241L553.205 323.33L557.52 330.456L542.688 335.304L537.805 327.241Z" fill="#FB8A77"/>
<path d="M546.372 322.605C550.491 320.187 553.741 318.881 555.135 320.095C556.584 321.273 566.449 348.719 566.449 348.719C566.449 348.719 563.772 353.276 560.298 346.933C557.563 342.053 552.327 336.923 550.043 334.852L549.988 334.885C548.016 334.903 546.578 336.29 546.886 335.22C547.089 334.584 547.938 333.924 548.904 333.339C549.953 331.309 548.423 326.359 546.696 325.567C546.697 325.569 542.286 325.078 546.372 322.605Z" fill="#202234"/>
<path d="M558.577 339.969C562.537 343.595 560.298 346.935 560.298 346.935C557.562 342.055 552.327 336.925 550.043 334.854L549.988 334.886C551.199 333.123 554.749 336.559 558.577 339.969Z" fill="#383B4B"/>
<path d="M337.655 35.0123C337.481 30.8382 337.939 26.6418 336.657 22.5908C335.466 18.8323 333.287 15.5046 331.125 12.2471C330.439 11.2125 328.759 12.1821 329.452 13.2252C331.516 16.3374 333.649 19.5163 334.789 23.1073C336.019 26.989 335.552 31.0126 335.719 35.014C335.772 36.2537 337.709 36.2606 337.655 35.0123ZM342.491 32.225C344.087 27.4922 346.615 23.1268 349.925 19.3863C350.75 18.4561 349.383 17.0812 348.555 18.0166C345.021 22.0046 342.324 26.6611 340.623 31.7103C340.225 32.8936 342.094 33.4015 342.491 32.225ZM331.48 28.4356C329.835 24.005 326.327 20.4875 321.9 18.8288C321.409 18.6442 320.838 19.0323 320.708 19.506C320.559 20.0481 320.892 20.5132 321.385 20.6979C325.128 22.1001 328.222 25.2054 329.613 28.9503C329.796 29.4411 330.269 29.7746 330.805 29.6275C331.275 29.4975 331.664 28.9281 331.48 28.4356Z" fill="#231F20"/>
<path d="M260.379 141.025L285.224 132.487L310.579 63.2871L314.933 64.7372C314.933 64.7372 315.384 133.296 303.017 147.638C295.73 156.087 260.632 161.617 260.632 161.617L260.379 141.025Z" fill="#FDA7A8"/>
<path d="M317.772 58.6871C317.58 59.9149 317.361 61.0179 317.154 61.6591C317.132 61.7327 317.11 61.7976 317.091 61.8506C316.921 62.3141 316.704 62.7364 316.472 63.116C316.273 63.4409 316.068 63.7282 315.871 63.9779C315.361 64.6277 314.917 64.9988 314.917 64.9988L313.846 75.1493C311.875 75.3203 309.258 74.5645 308.82 74.4123C308.82 74.4123 310.646 65.1766 309.727 63.6769C309.721 63.6617 309.712 63.6478 309.701 63.6359C309.684 63.6171 309.662 63.6017 309.64 63.5846C309.339 63.3161 309.082 62.745 308.914 62.0764C308.791 61.5856 308.713 61.0418 308.694 60.5271C308.692 60.4655 308.69 60.3971 308.692 60.3168C308.701 58.8564 309.246 54.9953 309.954 54.7883C310.767 54.5507 310.729 56.0845 310.651 56.8728L310.661 56.8061C310.955 54.7986 311.872 48.8136 312.871 48.8051C313.526 48.7965 313.398 51.353 313.201 53.3246C313.529 50.9237 314.125 47.502 314.802 47.8509C315.322 48.1193 315.146 51.6454 315.03 53.6136C315.233 52.2729 315.733 49.6327 316.194 49.6908C317.19 49.814 316.925 52.5876 316.632 54.4412C316.88 53.3502 317.284 52.1259 317.825 52.1259C318.487 52.1293 318.225 55.7733 317.772 58.6871Z" fill="#FDA7A8"/>
<path opacity="0.1" d="M315.22 64.3472C315.091 64.4994 314.953 64.6448 314.784 64.7662C314.216 65.1732 313.489 65.3408 312.796 65.3391C312.096 65.3356 311.361 65.1663 310.831 64.6875C310.61 64.4909 310.453 64.2481 310.297 63.9984C311.366 64.4704 312.635 64.2173 312.635 64.2173C313.573 64.5097 314.426 64.5422 315.138 64.3199C315.182 64.3455 315.211 64.3524 315.22 64.3472Z" fill="#231F20"/>
<path opacity="0.2" d="M317.154 61.6592C317.132 61.7327 317.11 61.7977 317.091 61.8507C316.922 62.3141 316.704 62.7365 316.472 63.1161C316.273 63.441 316.068 63.7283 315.871 63.978C315.651 64.1301 315.401 64.2447 315.138 64.3234C314.424 64.5457 313.572 64.5115 312.635 64.2208C312.635 64.2208 311.366 64.4721 310.299 64.0002C310.088 63.9113 309.885 63.7933 309.703 63.6377C309.686 63.6188 309.664 63.6035 309.642 63.5864C309.341 63.3179 309.084 62.7467 308.916 62.0781C308.793 61.5874 308.715 61.0436 308.696 60.5289C308.694 60.4673 308.692 60.3989 308.694 60.3185C308.703 58.8582 309.248 54.997 309.956 54.7901C310.769 54.5524 310.731 56.0863 310.653 56.8746L310.663 56.8079C310.624 57.3449 310.642 57.6834 310.892 57.4133C311.475 56.7788 312.695 56.5736 314.352 56.9362C316.109 57.3175 317.031 58.3315 317.43 58.6855C317.673 59.1096 317.377 60.8948 317.154 61.6592Z" fill="white"/>
<path d="M316.183 57.5774C316.19 57.5672 316.201 57.5586 316.202 57.5467L316.628 54.5114L316.04 57.4971C315.966 57.4577 315.896 57.4133 315.823 57.3757C315.482 57.2047 315.128 57.0559 314.757 56.9447C314.757 56.943 314.76 56.9413 314.76 56.9396L314.998 53.8838L314.594 56.9003C314.564 56.8917 314.535 56.8815 314.504 56.8746C314.04 56.7806 313.578 56.7088 313.108 56.6797C313.019 56.6746 312.93 56.6711 312.843 56.6677C312.843 56.6643 312.846 56.6626 312.846 56.6592L313.084 53.6034L312.677 56.6421V56.6472C312.677 56.654 312.682 56.6575 312.682 56.6643C312.355 56.6575 312.027 56.6711 311.707 56.7259C312.174 56.7156 312.636 56.7532 313.096 56.8079C313.554 56.8661 314.016 56.9345 314.464 57.0388C314.911 57.1345 315.34 57.3107 315.761 57.4936C316.183 57.68 316.596 57.8887 317.008 58.1041C316.748 57.9092 316.469 57.7382 316.183 57.5774Z" fill="#EA969B"/>
<path d="M189.797 222.055L229.517 338.075L240.76 449.886L252.041 448.105L261.728 330.627L248.128 220.852L189.797 222.055Z" fill="#202234"/>
<path opacity="0.5" d="M243.341 435.234C243.972 425.191 249.487 337.051 248.401 335.061C247.569 333.535 238.422 295.185 233.702 275.118L233.09 275.262C233.649 277.634 246.771 333.378 247.853 335.358C248.657 337.511 244.419 408.155 242.715 435.193L243.341 435.234Z" fill="#726658"/>
<path d="M200.885 227.16C200.885 227.16 192.295 237.177 193.011 261.507C193.728 285.837 192.969 323.763 192.969 323.763L185.738 448.995H197.514L236.503 309.112C236.503 309.112 260.606 226.5 252.733 223.639C244.861 220.776 200.885 227.16 200.885 227.16Z" fill="#232B57"/>
<path d="M224.506 129.84C224.506 129.84 253.854 130.557 261.727 137.711C269.601 144.866 256.717 171.344 256.717 171.344C256.717 171.344 254.569 216.424 251.348 231.452H197.305V174.206L185.852 134.849C185.853 134.849 208.034 128.474 224.506 129.84Z" fill="#A7CCEA"/>
<path opacity="0.2" d="M212.951 136.779C212.951 139.052 219.244 142.715 225.816 142.715C232.388 142.715 235.373 138.459 235.373 136.186C235.373 133.914 229.023 129.062 222.451 129.062C215.88 129.062 212.951 134.507 212.951 136.779Z" fill="#33143F"/>
<path d="M256.718 171.344C256.718 171.344 288.081 156.132 290.497 154.252C292.913 152.375 283.247 132.474 280.797 130.774C278.348 129.074 267.71 134.122 253.49 133.725C253.49 133.727 260.745 160.79 256.718 171.344Z" fill="#A7CCEA"/>
<path d="M196.114 432.58L212.646 330.676L212.651 255.296C221.852 252.268 226.012 238.569 226.185 237.982L225.583 237.805C225.541 237.946 221.279 251.987 212.244 254.768L212.023 254.836V330.627L195.496 432.481L196.114 432.58Z" fill="#726658"/>
<path opacity="0.7" d="M215.134 154.286C217.447 154.225 219.684 154.247 221.961 154.367C224.476 154.498 226.181 154.454 228.733 154.358C233.136 154.194 237.416 154.24 241.788 154.434C247.474 154.685 245.065 156.728 239.395 156.479C234.836 156.277 230.989 156.487 226.487 156.6C222.565 156.699 219.075 156.303 215.134 156.407C209.387 156.559 209.435 154.437 215.134 154.286ZM215.94 158.847C218.253 158.785 220.49 158.808 222.767 158.927C225.281 159.059 226.987 159.015 229.539 158.919C233.942 158.755 238.221 158.801 242.593 158.994C248.279 159.245 245.871 161.289 240.2 161.038C235.642 160.836 231.795 161.046 227.291 161.159C223.369 161.258 219.879 160.861 215.938 160.966C210.193 161.12 210.239 158.999 215.94 158.847Z" fill="white"/>
<path d="M222.259 118.994C217.719 123.53 219.871 126.993 214.137 123.412C208.403 119.83 204.582 119.353 204.582 108.727C204.582 98.0992 208.763 104.548 209.597 95.235C210.434 85.9223 214.614 90.3393 219.033 85.6829C223.451 81.0266 230.498 86.7568 233.365 85.3238C236.232 83.8908 240.412 89.7408 237.426 94.1594C234.439 98.5763 224.527 99.6519 219.869 104.189C215.211 108.727 222.259 118.994 222.259 118.994Z" fill="#202234"/>
<path d="M216.242 132.783L217.489 119.054C217.489 119.054 217.204 117.239 215.686 117.132C213.334 116.966 212.099 112.973 213.36 111.109C215.137 108.484 217.294 110.861 217.294 110.861C217.294 110.861 222.717 103.004 226.735 101.475C232.186 99.4005 237.352 101.317 237.352 101.317C237.352 101.317 241.7 119.156 238.65 123.582C235.6 128.005 229.069 126.118 229.069 126.118L231.264 135.138C231.264 135.138 228.929 140.608 223.515 139.751C218.102 138.893 216.242 132.783 216.242 132.783Z" fill="#FDA7A8"/>
<path opacity="0.1" d="M232.487 126.504C231.518 126.017 230.519 125.586 229.564 125.211C227.368 124.346 225.12 123.385 222.83 122.698C223.653 125.769 225.669 128.477 226.571 131.54C227.506 134.719 227.768 134.001 225.303 136.434C224.162 137.561 222.748 138.353 221.23 138.963C221.916 139.317 222.655 139.615 223.514 139.751C228.928 140.61 231.263 135.138 231.263 135.138L229.068 126.118C229.068 126.118 230.585 126.542 232.487 126.504Z" fill="#0F1019"/>
<path d="M215.52 111.326C215.52 111.326 213.937 111.288 213.801 112.034C213.662 112.78 214.312 115.575 214.312 115.575C214.312 115.575 214.408 112.951 214.656 112.436C214.904 111.921 215.732 111.586 215.52 111.326Z" fill="#EF9A9E"/>
<path opacity="0.05" d="M224.061 116.637C224.045 117.359 224.918 117.966 226.011 117.99C227.104 118.016 228.004 117.45 228.019 116.726C228.036 116.005 227.162 115.398 226.069 115.374C224.978 115.348 224.078 115.914 224.061 116.637ZM236.159 114.944C236.142 115.668 237.016 116.273 238.109 116.297C239.202 116.321 240.102 115.757 240.119 115.033C240.135 114.312 239.262 113.705 238.169 113.681C237.076 113.657 236.176 114.223 236.159 114.944Z" fill="#33133F"/>
<path d="M233.264 116.887C233.746 116.795 234.105 116.576 234.132 116.559C234.358 116.418 234.428 116.121 234.288 115.895C234.15 115.671 233.852 115.603 233.626 115.738C233.619 115.743 232.908 116.165 232.425 115.839C232.32 115.767 232.19 115.74 232.064 115.763C231.939 115.787 231.828 115.859 231.755 115.964C231.604 116.183 231.661 116.483 231.881 116.634C232.345 116.95 232.85 116.966 233.264 116.887ZM235.631 107.674C235.679 107.665 235.727 107.648 235.771 107.622C235.793 107.612 238.06 106.374 239.882 106.179C240.145 106.143 240.337 105.909 240.306 105.645C240.299 105.582 240.279 105.522 240.249 105.466C240.218 105.411 240.177 105.362 240.127 105.322C240.078 105.283 240.021 105.253 239.96 105.236C239.899 105.218 239.835 105.213 239.772 105.22C237.764 105.452 235.407 106.723 235.308 106.778C235.252 106.808 235.203 106.848 235.163 106.898C235.123 106.947 235.093 107.003 235.076 107.064C235.058 107.125 235.052 107.189 235.059 107.252C235.066 107.314 235.085 107.375 235.116 107.431C235.165 107.521 235.241 107.593 235.334 107.636C235.426 107.68 235.53 107.693 235.631 107.674ZM237.191 110.28C237.27 110.813 237.725 111.188 238.21 111.117C238.696 111.047 239.026 110.557 238.949 110.025C238.872 109.491 238.416 109.117 237.93 109.187C237.444 109.257 237.114 109.746 237.191 110.28ZM229.006 108.022C229.191 107.988 229.346 107.846 229.387 107.65C229.414 107.525 229.391 107.394 229.321 107.287C229.252 107.179 229.143 107.104 229.018 107.077C228.907 107.055 226.288 106.5 224.295 106.856C224.054 106.865 223.859 107.154 223.905 107.415C223.928 107.541 223.999 107.653 224.104 107.726C224.209 107.799 224.339 107.827 224.465 107.805C226.267 107.482 228.791 108.014 228.814 108.019C228.879 108.034 228.944 108.034 229.006 108.022ZM228.211 110.97C228.288 111.504 227.957 111.993 227.472 112.063C226.986 112.133 226.529 111.759 226.452 111.225C226.375 110.693 226.705 110.203 227.191 110.133C227.677 110.062 228.134 110.437 228.211 110.97ZM235.164 120.37C235.241 120.902 234.911 121.393 234.425 121.463C233.939 121.533 233.482 121.159 233.406 120.627C233.329 120.093 233.659 119.604 234.144 119.534C234.629 119.462 235.085 119.837 235.164 120.37Z" fill="#202234"/>
<path d="M220.646 107.951C219.031 107.07 218.376 113.563 218.376 113.563C218.376 113.563 217.599 111.473 217.182 110.637C216.765 109.801 216.286 110.757 214.972 107.771C213.658 104.785 210.732 104.308 217.242 98.5764C223.751 92.8445 220.408 91.5312 228.588 92.4273C236.769 93.3233 240.651 91.6509 241.188 95.2334C241.725 98.8158 238.858 103.115 235.993 102.456C233.126 101.8 236.47 101.74 229.902 103.532C223.333 105.324 223.273 109.382 220.646 107.951Z" fill="#202234"/>
<path d="M392.25 153.305L369.63 140.959L359.311 71.9021L354.846 75.0861C354.846 75.0861 346.846 142.841 355.549 159.659C360.678 169.567 386.751 179.331 386.751 179.331L392.25 153.305ZM469.147 176.929L497.155 202.016L542.294 230.217L540.469 223.695L512.733 194.634L473.658 153.305L469.147 176.929Z" fill="#FB8A77"/>
<path d="M447.656 249.125C447.656 249.125 461.209 261.255 456.32 283.173C451.431 305.09 429.985 336.537 429.985 336.537L424.622 451.567L414.133 451.368C414.133 451.368 400.507 355.193 401.395 326.328C402.086 303.881 411.191 239.424 418.824 238.203C426.456 236.982 447.656 249.125 447.656 249.125Z" fill="#202234"/>
<path d="M464.482 239.901C464.482 239.901 466.979 237.671 476.628 257.948C482.076 269.395 482.437 294.3 482.437 294.3L482.791 330.511L542.088 324.939L546.096 335.772C546.096 335.772 482.175 369.393 464.793 362.202C434.744 349.772 423.881 250.85 429.938 246.049C435.991 241.249 464.482 239.901 464.482 239.901Z" fill="#232B57"/>
<path d="M414.63 151.503C414.63 151.503 395.166 157.578 382.698 147.086L375.598 174.995L400.002 189.492C400.002 189.49 418.881 160.983 414.63 151.503Z" fill="#4094F2"/>
<path opacity="0.2" d="M398.489 188.332L392.805 185.215L407.089 161.655C407.089 161.656 403.294 185.21 398.489 188.332Z" fill="#33143F"/>
<path d="M413.102 250.773C413.102 250.773 418.226 213.435 412.21 206.778C406.181 200.121 394.484 198.866 399.258 185.701C404.032 172.549 403.548 164.124 407.087 157.804C412.67 147.838 433.688 147.588 433.688 147.588C433.688 147.588 460.102 139.808 462.277 149.529C463.124 153.266 463.24 165.644 463.533 180.241C463.736 190.853 464.044 202.633 464.788 213.112C465.68 225.71 467.199 236.423 469.958 240.992C476.208 251.385 413.102 250.773 413.102 250.773Z" fill="#4094F2"/>
<path d="M458.133 145.48C458.133 145.48 481.276 151.55 489.186 168.731C489.186 168.731 486.235 185.939 479.162 188.333L462.077 179.473L458.133 145.48Z" fill="#4094F2"/>
<path opacity="0.2" d="M464.792 213.114C463.521 210.282 461.988 207.348 460.236 204.822C454.877 197.086 443.167 198.953 442.088 199.145C458.981 194.926 459.785 185.906 459.785 185.906C460.792 183.834 462.238 181.848 463.538 180.243C463.74 190.853 464.047 202.633 464.792 213.114ZM439.366 146.191L441.828 145.48C441.828 145.48 447.011 157.416 433.099 159.052C419.187 160.689 416.459 156.188 416.459 156.188C416.459 156.188 415.549 152.436 419.078 150.725C422.605 149.015 439.366 146.191 439.366 146.191Z" fill="#33143F"/>
<path d="M548.043 234.598C548.043 234.598 550.85 229.407 547.761 226.289C544.671 223.172 543.029 225.506 543.029 225.506C543.029 225.506 546.562 230.537 546.481 231.991C546.404 233.444 546.613 235.289 548.043 234.598Z" fill="#ED7666"/>
<path d="M549.375 235.788C549.375 235.788 552.182 230.597 549.093 227.48C546.003 224.364 544.361 226.696 544.361 226.696C544.361 226.696 547.894 231.727 547.813 233.181C547.733 234.634 547.945 236.479 549.375 235.788Z" fill="#FB8A77"/>
<path d="M551.037 236.329C551.037 236.329 553.844 231.137 550.755 228.02C547.666 224.903 546.023 227.237 546.023 227.237C546.023 227.237 549.556 232.268 549.475 233.721C549.395 235.175 549.607 237.02 551.037 236.329Z" fill="#ED7666"/>
<path d="M531.266 223.548C531.266 223.548 533.169 220.173 534.688 219.355C534.688 219.355 539.524 223.606 541.501 224.148C543.479 224.691 547.189 223.309 550.774 225.581C552.685 226.79 554.664 228.241 555.186 229.675C555.724 231.159 555.666 235.248 554.799 235.676C553.932 236.103 553.42 233.48 552.989 231.95C552.558 230.419 551.284 229.147 549.712 228.701C548.14 228.254 546.789 230.039 546.789 230.039C546.789 230.039 550.569 232.038 550.396 232.955C550.223 233.87 548.198 232.728 545.988 232.115C543.778 231.503 539.873 231.019 539.278 229.186C538.682 227.351 531.266 223.548 531.266 223.548Z" fill="#FB8A77"/>
<path opacity="0.2" d="M548.946 232.868C548.931 232.856 548.965 232.127 549.345 232.189C549.725 232.252 550.344 232.916 550.094 232.991C549.844 233.066 549.28 233.141 548.946 232.868ZM554.67 235.635C554.635 235.631 554.783 234.737 554.962 234.532C555.142 234.328 555.297 234.398 555.297 234.398C555.297 234.398 555.108 235.682 554.67 235.635Z" fill="white"/>
<path d="M353.936 72.1534C355.405 74.9629 353.17 82.752 353.425 83.3898C353.679 84.0293 358.212 83.9011 359.17 83.3898C359.17 83.3898 359.49 71.5139 359.17 66.8524C358.85 62.1892 357.189 60.7853 356.615 57.9108C356.045 55.0363 354.182 46.6248 353.233 46.606C352.585 46.5957 352.59 48.9743 352.771 52.0113V52.0164C353.047 56.5411 353.715 62.5107 353.218 64.1574C352.937 65.0808 352.761 65.9752 352.706 66.8592C352.598 68.5898 352.963 70.2912 353.936 72.1534Z" fill="#FB8A77"/>
<path d="M352.709 66.8559C352.877 66.5857 353.034 66.3104 353.186 66.0351C353.894 64.7389 354.479 63.3521 354.784 61.9037C355.104 60.4143 355.088 58.877 354.774 57.3927C354.449 55.8691 353.835 54.4498 353.215 53.0305C353.068 52.6919 352.921 52.3568 352.772 52.0131C353.048 56.5377 353.716 62.5073 353.219 64.1541C352.94 65.0775 352.762 65.9718 352.709 66.8559Z" fill="#EA7B6C"/>
<path d="M355.361 66.8508C355.361 66.8508 355.999 63.9763 355.01 61.9328C354.02 59.8894 354.003 57.1482 353.349 56.5993C352.778 56.1205 351.628 56.177 351.625 58.1315C351.62 60.7512 352.774 61.5156 352.136 63.2085C351.498 64.9014 351.392 66.8063 352.463 69.2585C353.501 71.6422 354.658 69.149 355.361 66.8508Z" fill="#FB8A77"/>
<path d="M354.85 61.5737C354.983 62.1004 355.115 62.6237 355.234 63.1469C355.289 63.4086 355.347 63.6702 355.385 63.9318C355.426 64.1969 355.45 64.4482 355.416 64.703C355.359 65.2195 355.199 65.7393 355.096 66.2728C354.986 66.8046 354.928 67.3638 355.016 67.9024C355.034 67.3587 355.159 66.8388 355.299 66.3224C355.441 65.806 355.616 65.2913 355.683 64.7304C355.741 64.1507 355.582 63.6138 355.436 63.0922C355.279 62.5707 355.081 62.0645 354.85 61.5737Z" fill="#EA7B6C"/>
<path opacity="0.2" d="M353.375 46.8112C353.375 46.8112 353.433 48.4887 353.623 48.5041C353.813 48.5195 353.974 48.4955 353.974 48.2407C353.972 47.9877 353.594 46.724 353.375 46.8112ZM353.84 58.4529C353.84 58.4529 353.431 58.7436 353.123 58.5247C352.817 58.3058 352.886 56.6283 353.117 56.6146C353.348 56.6009 353.84 58.4529 353.84 58.4529Z" fill="white"/>
<path d="M190.708 173.589C190.708 173.589 182.295 197.772 178.624 205.518C174.647 213.909 177.063 260.734 177.063 260.734L172.605 261.558C172.605 261.558 157.212 207.185 161.945 195.043C166.126 184.316 174.829 163.644 174.829 163.644L190.708 173.589Z" fill="#FDA7A8"/>
<path d="M171.78 272.415C171.661 271.018 171.616 269.766 171.691 269.121C171.749 268.624 171.861 268.152 171.997 267.723C172.116 267.355 172.251 267.02 172.386 266.726C172.735 265.961 173.082 265.484 173.082 265.484L171.696 255.188C173.604 254.545 176.373 254.662 176.845 254.708C176.845 254.708 177.264 264.282 178.535 265.544C178.544 265.558 178.559 265.57 178.569 265.578C178.592 265.59 178.617 265.602 178.641 265.613C179.002 265.808 179.394 266.309 179.722 266.931C179.963 267.388 180.17 267.906 180.314 268.408C180.665 269.638 183.992 270.743 183.687 271.471C183.381 272.199 181.277 272.081 180.55 271.307C179.823 270.536 179.139 271.196 179.233 272.203L179.262 272.519C179.45 274.53 180.001 280.756 179.007 281.009C178.361 281.174 177.871 278.615 177.591 276.618C177.844 279.07 178.08 282.6 177.327 282.417C176.749 282.277 176.072 278.747 175.714 276.772C175.836 278.149 175.976 280.878 175.506 280.932C174.49 281.049 174.086 278.243 173.929 276.338C173.946 277.477 173.841 278.785 173.306 278.915C172.653 279.072 172.032 275.404 171.78 272.415Z" fill="#FDA7A8"/>
<path d="M177.142 273.227C177.142 273.231 177.139 273.232 177.14 273.236L177.641 276.315L177.313 273.212V273.207C177.311 273.2 177.949 273.027 178.254 272.895C177.795 273.019 177.328 273.092 176.86 273.149C176.685 273.167 176.511 273.186 176.336 273.202C176.333 273.202 177.053 273.244 177.142 273.227ZM175.18 273.412C175.18 273.414 175.178 273.415 175.178 273.419L175.679 276.498L175.353 273.417C175.821 273.386 176.114 273.219 176.114 273.219C175.892 273.236 175.669 273.246 175.447 273.248C175.177 273.255 174.906 273.232 174.636 273.198C174.634 273.241 174.995 273.403 175.18 273.412ZM173.606 273.166L173.918 276.271L173.781 273.176C173.863 273.198 174.417 273.222 174.422 273.172C174.301 273.154 174.178 273.135 174.056 273.113C173.594 273.031 173.134 272.923 172.676 272.808C172.979 272.936 173.605 273.152 173.606 273.166Z" fill="#ED9498"/>
<path opacity="0.2" d="M178.904 280.782C179.157 280.724 179.277 279.913 179.227 279.836C179.227 279.836 178.562 279.86 178.451 279.917C178.338 279.973 178.651 280.84 178.904 280.782ZM177.387 282.232C177.64 282.174 177.76 281.363 177.71 281.286C177.71 281.286 177.045 281.31 176.933 281.367C176.822 281.422 177.134 282.29 177.387 282.232ZM175.322 280.714C175.575 280.655 175.695 279.845 175.645 279.768C175.645 279.768 174.98 279.792 174.869 279.848C174.758 279.903 175.069 280.772 175.322 280.714ZM173.228 278.511C173.482 278.453 173.601 277.642 173.552 277.565C173.552 277.565 172.886 277.589 172.775 277.646C172.664 277.701 172.975 278.569 173.228 278.511ZM182.705 270.51L182.467 270.768C182.467 270.768 183.29 271.425 183.538 271.285C183.788 271.143 182.705 270.51 182.705 270.51Z" fill="white"/>
<path d="M197.306 174.206L190.864 180.646C190.864 180.646 170.285 171.433 170.285 167.407C170.285 163.382 177.984 136.79 185.854 134.849C193.725 132.908 197.306 174.206 197.306 174.206Z" fill="#A7CCEA"/>
<path d="M448.868 111.649C448.868 116.506 444.931 120.442 440.073 120.442C435.215 120.442 431.277 116.506 431.277 111.649C431.277 106.793 435.215 102.856 440.073 102.856C444.931 102.856 448.868 106.793 448.868 111.649Z" fill="#402051"/>
<path d="M426.143 136.935C435.543 136.935 443.163 129.317 443.163 119.921C443.163 110.524 435.543 102.906 426.143 102.906C416.743 102.906 409.123 110.524 409.123 119.921C409.123 129.317 416.743 136.935 426.143 136.935Z" fill="#33143F"/>
<path d="M434.798 133.647L436.51 150.624C436.51 150.624 431.23 158.471 425.949 152.621L426.091 141.207L434.798 133.647Z" fill="#FB8A77"/>
<path opacity="0.15" d="M430.474 152.842C429.338 150.911 428.903 147.975 430.662 146.256C431.373 145.562 432.3 145.126 432.985 144.403C433.838 143.502 433.99 142.137 433.867 140.954C433.664 139.023 432.844 137.14 432.978 135.227L426.091 141.208L425.949 152.623C428.012 154.907 430.072 155.099 431.82 154.488C431.305 154.016 430.845 153.471 430.474 152.842Z" fill="#33133F"/>
<path d="M412.297 116.195C412.297 116.195 411.345 143.491 422.192 144.348C433.038 145.205 437.795 133.79 437.795 133.79C437.795 133.79 439.793 135.027 440.269 133.029C440.744 131.032 443.124 127.513 440.744 126.181C438.367 124.849 437.604 127.038 437.604 127.038L438.936 120.856C438.936 120.854 412.582 107.253 412.297 116.195Z" fill="#FB8A77"/>
<path opacity="0.05" d="M438.658 127.412C438.658 127.412 440.086 126.641 440.657 127.754C441.228 128.867 439.971 133.122 438.286 132.607C438.286 132.607 440.457 131.665 440.2 129.067C439.944 126.472 439.029 128.241 438.658 127.412ZM432.081 133.999C432.209 134.757 431.383 135.528 430.237 135.721C429.091 135.914 428.057 135.458 427.929 134.698C427.801 133.941 428.627 133.17 429.773 132.976C430.921 132.785 431.954 133.242 432.081 133.999ZM419.094 134.071C419.223 134.828 418.396 135.6 417.25 135.793C416.104 135.986 415.071 135.528 414.943 134.77C414.815 134.013 415.641 133.242 416.787 133.048C417.933 132.855 418.966 133.313 419.094 134.071Z" fill="#33133F"/>
<path d="M419.321 127.614C419.184 127.614 419.057 127.525 419.015 127.388C418.984 127.287 418.205 124.91 414.981 125.22C414.939 125.224 414.897 125.22 414.857 125.208C414.816 125.196 414.779 125.176 414.746 125.149C414.714 125.122 414.687 125.089 414.667 125.052C414.647 125.015 414.635 124.974 414.63 124.933C414.626 124.891 414.63 124.848 414.643 124.808C414.655 124.768 414.675 124.73 414.702 124.698C414.728 124.665 414.761 124.638 414.798 124.618C414.835 124.599 414.876 124.586 414.918 124.582C418.671 124.216 419.617 127.171 419.625 127.202C419.64 127.249 419.643 127.3 419.634 127.349C419.626 127.398 419.606 127.444 419.576 127.484C419.547 127.524 419.508 127.557 419.464 127.579C419.42 127.602 419.37 127.614 419.321 127.614ZM426.259 127.616C426.206 127.616 426.173 127.614 426.163 127.614C426.078 127.61 425.998 127.573 425.941 127.511C425.883 127.449 425.852 127.367 425.855 127.282C425.862 127.106 426.016 126.969 426.187 126.974C426.209 126.974 428.441 127.039 430.463 125.502C430.605 125.394 430.805 125.422 430.913 125.564C431.021 125.704 430.993 125.906 430.851 126.013C428.86 127.525 426.738 127.616 426.259 127.616ZM423.07 134.136C422.167 134.136 421.673 133.648 421.645 133.619C421.541 133.515 421.524 133.353 421.601 133.226C422.088 132.434 421.633 130.3 421.418 129.544C421.37 129.373 421.467 129.197 421.638 129.148C421.81 129.1 421.986 129.197 422.035 129.368C422.117 129.652 422.769 132.021 422.278 133.294C422.54 133.445 423.091 133.64 423.917 133.324C424.083 133.26 424.268 133.344 424.331 133.508C424.394 133.674 424.31 133.859 424.146 133.922C423.739 134.078 423.382 134.136 423.07 134.136Z" fill="#33143F"/>
<path d="M418.673 129.604C418.673 130.603 418.118 131.412 417.436 131.412C416.753 131.412 416.199 130.603 416.199 129.604C416.199 128.606 416.753 127.797 417.436 127.797C418.118 127.797 418.673 128.607 418.673 129.604ZM429.805 129.604C429.805 130.603 429.251 131.412 428.568 131.412C427.886 131.412 427.331 130.603 427.331 129.604C427.331 128.606 427.886 127.797 428.568 127.797C429.251 127.799 429.805 128.607 429.805 129.604Z" fill="#33133F"/>
<path d="M426.508 136.367C426.508 137.046 424.338 138.66 423.66 138.66C422.981 138.66 419.971 138.247 419.971 137.568C419.971 136.889 422.59 136.757 423.267 136.757C423.946 136.759 426.508 135.69 426.508 136.367Z" fill="white"/>
<path d="M417.236 111.714C417.301 110.569 417.245 109.821 417.245 109.821C405.971 110.82 411.393 122.518 411.393 122.518C415.307 120.562 416.634 116.425 417.067 113.404C420.096 117.549 427.483 125.871 438.081 126.085L441.505 120.379L417.236 111.714Z" fill="#33133F"/>
<path d="M418.719 109.97C416.435 110.752 415.007 113.158 413.975 115.192C413.06 116.998 412.188 118.948 411.976 120.977C411.81 122.568 411.897 124.19 412.125 125.771C412.378 127.522 412.879 129.22 413.06 130.984C413.286 133.18 413.225 135.553 411.904 137.421C410.886 138.861 409.328 139.804 408.165 141.113C407.823 141.497 408.387 142.065 408.731 141.679C409.75 140.533 411.044 139.673 412.049 138.519C413.267 137.122 413.83 135.413 413.938 133.577C414.126 130.401 413.002 127.422 412.759 124.295C412.634 122.691 412.609 120.974 413.069 119.418C413.284 118.689 413.585 117.975 413.883 117.279C414.418 116.02 415.033 114.787 415.783 113.643C416.555 112.468 417.55 111.212 418.929 110.741C419.417 110.577 419.21 109.803 418.719 109.97ZM426.603 110.777C431.561 112.395 434.023 117.415 435.439 122.068C436.845 126.687 437.326 131.48 438.342 136.183C438.616 137.452 438.906 139.31 440.068 140.111C440.494 140.405 440.894 139.71 440.471 139.418C439.536 138.773 439.305 136.867 439.089 135.856C438.628 133.688 438.313 131.492 437.921 129.312C437.03 124.355 435.935 119.05 433.022 114.833C431.484 112.605 429.411 110.849 426.815 110.003C426.324 109.845 426.113 110.618 426.603 110.777Z" fill="#33143F"/>
</svg>
